<?xml version="1.0" encoding="UTF-8" standalone="no"?>
<svg
   xmlns:dc="http://purl.org/dc/elements/1.1/"
   xmlns:cc="http://creativecommons.org/ns#"
   xmlns:rdf="http://www.w3.org/1999/02/22-rdf-syntax-ns#"
   xmlns:svg="http://www.w3.org/2000/svg"
   xmlns="http://www.w3.org/2000/svg"
   viewBox="0 0 1982.4268 1982.4268"
   height="1982.4268"
   width="1982.4268"
   xml:space="preserve"
   id="svg2"
   version="1.1"><metadata
     id="metadata8"><rdf:RDF><cc:Work
         rdf:about=""><dc:format>image/svg+xml</dc:format><dc:type
           rdf:resource="http://purl.org/dc/dcmitype/StillImage" /></cc:Work></rdf:RDF></metadata><defs
     id="defs6"><clipPath
       id="clipPath14"
       clipPathUnits="userSpaceOnUse"><path
         id="path12"
         d="M 0,0 H 1486.8225 V 1486.8225 H 0 Z" /></clipPath><clipPath
       id="clipPath22"
       clipPathUnits="userSpaceOnUse"><path
         id="path20"
         d="M 0,1486.823 H 1486.823 V 0 H 0 Z" /></clipPath></defs><g
     clip-path="url(#clipPath14)"
     transform="matrix(1.3333333,0,0,-1.3333333,0,1982.4267)"
     id="g10"><g
       id="g16"><g
         clip-path="url(#clipPath22)"
         id="g18"><g
           transform="translate(914.16,266.2205)"
           id="g24"><path
             id="path26"
             style="fill:#f9f7f8;fill-opacity:1;fill-rule:nonzero;stroke:none"
             d="m 0,0 -34.133,-0.074 c -2.476,0 -4.531,2.699 -5.558,5.039 L -79.484,96 c -0.547,1.25 -1.957,2.196 -3.254,1.778 L -82.816,5.446 c 0,-2.34 -2.391,-5.485 -4.43,-5.477 l -30.648,0.121 c -2.789,0.008 -3.868,4.321 -3.868,6.688 v 164.043 c 0.008,4.574 3.18,6.523 7.321,6.523 l 28.828,-0.023 c 3.922,0 7.133,-1.453 8.625,-5.227 l 38.469,-96.129 1.507,-1.558 c 0.329,-0.344 1.055,0.75 1.438,1.582 l 0.055,95.422 c 0,3.804 3.449,5.882 6.57,5.875 l 26.414,-0.055 c 3.375,0 6.023,-1.992 5.961,-5.652 V 4.582 C 3.344,3.403 1.246,0.008 -0.008,0.008 Z" /></g><g
           transform="translate(722.852,271.2526)"
           id="g28"><path
             id="path30"
             style="fill:#f9f7f8;fill-opacity:1;fill-rule:nonzero;stroke:none"
             d="m 0,0 -18.7,56.511 c -0.449,1.352 -2.535,3.121 -3.757,3.121 h -14.618 c -1.101,-0.007 -2.82,-2.015 -2.82,-3.187 L -39.926,0.343 c 0,-2.187 -2.422,-5.414 -4.438,-5.406 l -30.652,0.121 c -2.785,0.008 -3.871,4.321 -3.871,6.688 v 164.043 c 0.008,4.574 3.156,6.523 7.351,6.515 l 50.332,-0.121 c 12.125,-0.027 23.579,-1.152 34.493,-6.285 12.66,-5.945 21.312,-17.512 22.168,-31.781 l 0.175,-32.738 C 35.683,90.808 29.421,81.765 21.621,75.074 19.785,73.5 17.464,71.308 18.5,68.304 L 41.535,1.418 c 0.906,-2.641 -0.348,-6.504 -3.481,-6.504 L 5.097,-5.071 c -1.926,0 -4.418,2.965 -5.105,5.055 z m -13.344,91.043 c 5.664,1.328 10.801,6.195 10.816,11.812 l 0.067,27.106 c 0.015,5.543 -4.754,10.492 -10.246,11.363 -8.219,1.312 -22.981,2.976 -27.188,-1.141 V 91.898 c 3.902,-4.094 18.93,-2.648 26.543,-0.855 z" /></g><g
           transform="translate(1222.426,339.2755)"
           id="g32"><path
             id="path34"
             style="fill:#f9f7f8;fill-opacity:1;fill-rule:nonzero;stroke:none"
             d="m 0,0 -37.27,-0.141 c -1.797,0 -3.718,-1.425 -3.718,-3.187 l 0.039,-38.094 c 1.175,-1.215 3.664,-2.414 5.39,-2.414 l 55.289,-0.058 c 2.153,0 4.457,-3.278 4.457,-5.305 v -18.582 c 0,-2.012 -2.242,-5.336 -4.523,-5.336 H -76.11 c -1.39,0 -3.832,3.176 -3.832,4.676 l -0.015,166.215 c 0,1.777 0.832,4.062 1.738,4.867 1.02,0.906 3.816,1.672 5.648,1.672 h 89.43 c 3.719,0 7.266,-1.914 7.274,-5.868 l 0.039,-18.457 c 0,-2.078 -2.258,-5.324 -4.45,-5.324 l -55.281,-0.066 c -1.73,0 -4.199,-1.215 -5.406,-2.395 V 32.621 c 0,-1.066 2.543,-2.5 3.66,-2.5 L -0.254,30.008 C 2.168,30 6.133,28.586 6.156,25.848 L 6.328,5.574 C 6.359,2.344 3.777,0.016 0.008,0.008 Z" /></g><g
           transform="translate(598.738,339.2755)"
           id="g36"><path
             id="path38"
             style="fill:#f9f7f8;fill-opacity:1;fill-rule:nonzero;stroke:none"
             d="m 0,0 -37.265,-0.141 c -1.801,0 -3.719,-1.425 -3.719,-3.187 l 0.035,-38.094 c 1.18,-1.215 3.668,-2.414 5.395,-2.414 l 55.289,-0.058 c 2.152,0 4.453,-3.278 4.453,-5.305 v -18.582 c 0,-2.012 -2.242,-5.336 -4.52,-5.336 h -95.777 c -1.387,0 -3.832,3.176 -3.832,4.676 l -0.016,166.215 c 0,1.777 0.832,4.062 1.742,4.867 1.02,0.906 3.817,1.672 5.649,1.672 h 89.43 c 3.718,0 7.265,-1.914 7.273,-5.868 l 0.039,-18.457 c 0,-2.078 -2.258,-5.324 -4.449,-5.324 l -55.281,-0.066 c -1.735,0 -4.207,-1.207 -5.387,-2.403 L -41,34.098 c 0,-2.235 1.328,-3.946 3.75,-3.961 L -0.269,30 C 2.168,29.996 6.129,28.594 6.153,25.84 L 6.324,5.567 C 6.356,2.336 3.774,0.008 0,-0.004 Z" /></g><g
           transform="translate(335.625,339.2755)"
           id="g40"><path
             id="path42"
             style="fill:#f9f7f8;fill-opacity:1;fill-rule:nonzero;stroke:none"
             d="m 0,0 -37.297,-0.133 c -1.172,0 -3.683,-1.371 -3.683,-2.429 l 0.031,-39.465 c 1.898,-0.871 4.222,-1.832 6.035,-1.832 H 18.27 c 3.105,0 5.828,-2.047 5.828,-5.535 v -18.2 c 0,-3.472 -2.676,-5.543 -5.879,-5.543 l -94.321,0.036 c -1.394,0 -3.839,3.144 -3.839,4.652 l -0.016,166.215 c 0,1.777 0.832,4.062 1.738,4.867 1.02,0.906 3.813,1.672 5.656,1.672 h 89.407 c 4.195,0 7.359,-2.34 7.343,-6.547 L 24.105,80.149 C 24.09,76.684 21.352,74.613 18.27,74.613 l -52.485,0.012 c -2.183,0 -4.539,-0.844 -6.734,-1.812 L -40.98,32.567 c 0,-1.036 2.527,-2.446 3.667,-2.454 L -0.262,30 c 2.422,0 6.391,-1.422 6.41,-4.16 L 6.324,5.567 C 6.352,2.336 3.766,0.008 0.008,-0.004 Z" /></g><g
           transform="translate(1113.375,266.1505)"
           id="g44"><path
             id="path46"
             style="fill:#f9f7f8;fill-opacity:1;fill-rule:nonzero;stroke:none"
             d="m 0,0 -98.992,0.024 c -1.387,0 -3.84,3.16 -3.832,4.597 l 0.125,22.289 c 0.008,1.907 1.84,5.043 2.867,6.961 l 59.66,111.52 c -1.558,1.5 -3.734,2.316 -5.773,2.316 l -53.106,0.09 c -1.75,0 -3.789,3.523 -3.797,5.219 l -0.015,18.078 c 0,1.422 0.863,3.859 1.761,4.68 1.016,0.914 3.805,1.664 5.641,1.664 h 91.68 c 1.562,0 4.215,-0.653 5.234,-1.321 1.141,-0.75 2.231,-3.429 2.215,-4.957 L 3.512,150.625 c -0.024,-2.723 -2.168,-6.262 -3.625,-8.992 L -57.781,33.766 c -0.41,-0.77 -0.981,-2.742 -0.344,-3.008 l 3.555,-1.492 H -0.172 C 1.461,28.344 2.984,26.469 3.637,24.828 L 3.621,4.418 C 3.195,3.176 1.641,0.945 -0.008,-0.004 Z" /></g><g
           transform="translate(453.781,266.3695)"
           id="g48"><path
             id="path50"
             style="fill:#f9f7f8;fill-opacity:1;fill-rule:nonzero;stroke:none"
             d="m 0,0 -31.57,-0.031 c -2.789,0 -3.875,4.285 -3.875,6.648 l 0.016,136.32 c 0,2.715 -2.184,4.477 -4.786,4.5 l -28.988,0.215 c -1.621,0.016 -3.726,3.457 -3.726,5.086 v 18.149 c -0.008,1.425 0.851,3.863 1.753,4.679 1.012,0.918 3.786,1.668 5.657,1.668 h 99.148 c 3.742,0 7.274,-1.922 7.281,-5.867 l 0.047,-18.457 c 0,-2.094 -2.332,-5.293 -4.375,-5.301 L 8.887,147.488 c -1.727,0 -3.961,-1.164 -5.34,-2.519 V 5.887 c 0,-1.68 -1.5,-5.879 -3.539,-5.879 z" /></g><g
           transform="translate(979.02,266.1235)"
           id="g52"><path
             id="path54"
             style="fill:#f9f7f8;fill-opacity:1;fill-rule:nonzero;stroke:none"
             d="m 0,0 -29.086,0.097 c -1.438,0 -3.86,3.059 -3.86,4.618 l 0.012,167.582 c 0,3.636 3.855,5.086 6.57,5.086 l 25.727,-0.024 c 3.691,0 6,-2.101 6.66,-5.941 L 6.023,5.66 C 5.265,2.062 3.531,-0.016 -0.008,0 Z" /></g><g
           transform="translate(409.582,177.9985)"
           id="g56"><path
             id="path58"
             style="fill:#f9f7f8;fill-opacity:1;fill-rule:nonzero;stroke:none"
             d="m 0,0 c -0.09,0.082 -0.172,0.156 -0.262,0.23 -0.023,0.024 -0.054,0.047 -0.074,0.063 -0.008,0 -0.047,0.035 -0.07,0.051 -1.313,0.554 -2.723,0.878 -4.266,0.894 L -28.59,1.394 c -3.465,3.09 -3.269,10.629 -0.113,13.844 l 20.695,0.332 c 3.906,0.059 5.742,3.231 5.715,6.524 -0.031,3.527 -1.816,6.054 -5.418,6.058 l -15.855,0.031 -5.907,0.856 c -1.808,3.473 -2.027,7.695 -0.234,11.437 1.629,0.707 4.305,1.176 6.164,1.192 l 20.207,0.121 c 3.57,0.023 4.949,4.312 4.715,6.922 -0.27,3.054 -2.457,5.64 -6.195,5.648 l -32.879,0.09 c -4.551,0.016 -7.559,-2.984 -7.551,-7.566 l 0.117,-52.95 c 0.008,-3.746 3.707,-5.574 6.586,-5.566 l 36.871,0.082 c 0.457,0 0.899,0.105 1.344,0.293 1.168,1.066 1.902,2.535 2.211,4.094 0.433,2.176 0.039,4.687 -1.254,6.527 -0.199,0.215 -0.395,0.441 -0.613,0.645 z" /></g><g
           transform="translate(443.773,194.9635)"
           id="g60"><path
             id="path62"
             style="fill:#f9f7f8;fill-opacity:1;fill-rule:nonzero;stroke:none"
             d="m 0,0 -10.543,2.871 c -1.769,0.48 -4.093,2.535 -2.492,4.351 1.028,1.153 4.571,1.77 6.16,1.649 l 6.016,-0.45 C -0.343,8.39 0.18,8.382 0.7,8.421 1.188,8.453 1.555,8.496 2.086,8.668 2.34,8.75 2.34,8.746 2.614,8.902 2.665,8.933 2.715,8.961 2.762,9 c 0.024,0.015 0.043,0.031 0.067,0.043 0.082,0.07 0.164,0.144 0.242,0.226 0.058,0.059 0.117,0.09 0.187,0.129 0.922,1.199 1.176,2.789 1.281,4.258 0.129,1.726 -0.269,3.512 -1.035,5.055 -0.211,0.421 -0.465,0.804 -0.773,1.14 -0.156,0.145 -0.254,0.211 -0.488,0.36 -0.036,0.023 -0.075,0.046 -0.11,0.07 -0.414,0.101 -0.847,0.172 -1.312,0.199 -5.422,0.324 -10.77,0.969 -15.864,-0.027 -7.199,-1.41 -12.773,-6.496 -13.468,-13.621 -0.586,-5.961 1.59,-12.114 7.461,-13.852 l 12.105,-3.578 c 1.524,-0.449 3.301,-1.906 3.188,-3.172 -0.422,-4.59 -9.293,-3.961 -16.629,-2.715 -2.571,0.434 -4.867,-0.73 -6.555,-2.422 -0.613,-0.894 -1.035,-1.922 -1.125,-2.988 0.047,-0.672 0.219,-1.355 0.512,-1.965 0.097,-0.203 0.203,-0.394 0.32,-0.59 3.18,-3.527 7.328,-4.679 11.926,-5.144 12.047,-1.223 25.273,2.812 26.469,14.465 0.703,6.922 -2.34,13.297 -9.137,15.152 z" /></g><g
           transform="translate(478.934,177.6235)"
           id="g64"><path
             id="path66"
             style="fill:#f9f7f8;fill-opacity:1;fill-rule:nonzero;stroke:none"
             d="m 0,0 c -1.852,-0.301 -6.395,0.871 -6.418,3.195 l -0.204,19.988 c 3.235,3.282 12.426,-1.418 14.317,3.907 0.34,0.636 0.543,2.203 0.562,2.836 0.055,1.371 0,1.679 -0.187,3.164 0,0.035 0.008,0.074 0.016,0.113 -1.086,7.695 -14.52,0.547 -14.864,8.586 -0.195,4.574 -0.242,7.281 -7.32,7.199 -6.504,-0.074 -6.848,-2.676 -6.734,-7.043 0.156,-6.344 -8.004,-1.633 -9.008,-6.117 0.035,-0.078 -0.047,-0.195 -0.071,-1 -0.043,-1.559 -0.035,-2.977 -0.097,-4.445 -0.051,-1.2 0.015,-2.133 0.183,-3.618 1.047,-3.015 3.817,-2.64 6.907,-2.257 0.793,0.097 2.093,-1.926 2.086,-2.797 L -20.93,3.816 c -0.055,-8.707 5.555,-15.148 14.316,-16.012 2.618,-0.261 5.528,-0.195 8.227,0.075 4.32,0.441 6.441,3.472 6.121,7.343 -0.301,3.614 -3.645,5.446 -7.719,4.786 z" /></g><g
           transform="translate(533.559,196.4246)"
           id="g68"><path
             id="path70"
             style="fill:#f9f7f8;fill-opacity:1;fill-rule:nonzero;stroke:none"
             d="m 0,0 -0.473,11.964 c -0.172,4.348 -2.527,6.938 -6.774,6.93 -4.371,-0.008 -6.808,-2.527 -6.863,-7.277 l -0.23,-20.871 c -0.031,-2.52 -0.895,-5.301 -2.485,-7.02 -1.355,-1.469 -4.347,-2.207 -6.675,-2.129 -4.086,0.133 -7.618,2.903 -7.664,7.192 l -0.239,24.359 c -0.031,3.293 -3.179,5.469 -5.679,5.684 -3.5,0.316 -5.879,-0.555 -7.739,-2.969 -0.09,-0.621 -0.152,-1.262 -0.218,-1.867 -0.157,-1.371 -0.286,-2.746 -0.321,-4.133 -0.07,-2.363 0.004,-4.727 -0.008,-7.094 0.036,-0.09 0.051,-0.18 0.043,-0.277 -0.031,-0.293 -0.043,-0.586 -0.058,-0.871 V 1.441 1.41 C -45.399,1 -45.414,0.586 -45.43,0.171 l 0.129,-12.816 c 0.074,-7.738 5.371,-14.145 12.601,-16.598 7.379,-2.504 15.614,-2.363 22.664,1.352 10.313,5.43 10.485,16.805 10.051,27.898 z" /></g><g
           transform="translate(863.852,185.0925)"
           id="g72"><path
             id="path74"
             style="fill:#f9f7f8;fill-opacity:1;fill-rule:nonzero;stroke:none"
             d="m 0,0 c 0.007,0.269 0.019,0.546 0.019,0.816 0.039,2.34 0,4.68 -0.09,7.023 -0.019,0.067 -0.043,0.133 -0.043,0.215 -0.008,2.395 -0.324,4.762 -0.652,7.125 -3.758,10.125 -13.27,16.223 -24.18,15.668 -13.582,0.352 -24.308,-9.129 -25.336,-22.762 -0.414,-5.453 0.504,-11.582 3.418,-16.449 5.453,-9.109 16.121,-12.703 26.41,-11.16 9.465,1.043 16.606,7.149 19.989,15.938 0.222,1.187 0.375,2.386 0.449,3.593 z m -16.481,-3.594 c -3.074,-4.297 -9,-4.746 -12.949,-2.824 -4.758,2.308 -6.406,7.152 -6.293,12.472 0.117,5.324 2.047,9.84 6.937,11.774 4.438,1.754 9.981,0.578 12.973,-4.239 3.074,-4.949 3.039,-12.007 -0.668,-17.183" /></g><g
           transform="translate(904.344,214.3815)"
           id="g76"><path
             id="path78"
             style="fill:#f9f7f8;fill-opacity:1;fill-rule:nonzero;stroke:none"
             d="m 0,0 c -2.145,-0.813 -4.426,-0.692 -6.301,-0.106 -13.059,5.16 -27.074,-1.476 -31.5,-14.746 -0.023,-0.043 -0.055,-0.098 -0.09,-0.156 -0.625,-3.547 -0.707,-7.156 -0.609,-10.754 0.031,-0.086 0.054,-0.176 0.054,-0.274 0,-2.668 0.211,-5.324 0.661,-7.941 3.39,-9.316 11.738,-15.129 21.98,-15.105 l 9.406,0.464 c 0.938,-2.742 -0.832,-5.355 -3.121,-6.644 -10.687,-6.031 -20.301,1.605 -24.711,-2.293 -1.402,-1.238 -1.851,-4.215 -1.484,-5.918 1.574,-7.352 19.363,-7.582 28.43,-5.004 7.207,2.055 15.707,8.387 15.714,16.832 l 0.043,48.41 c 0,3.602 -6.23,4.09 -8.48,3.235 z m -5.696,-33.993 c -5.031,-3.644 -12.539,-4.378 -16.41,1.008 -3.426,4.77 -3.238,12.567 -0.289,17.684 3.18,5.519 11.52,6.008 15.86,1.476 2.589,-2.699 2.281,-13.183 0.839,-20.175 z" /></g><g
           transform="translate(777.328,203.5565)"
           id="g80"><path
             id="path82"
             style="fill:#f9f7f8;fill-opacity:1;fill-rule:nonzero;stroke:none"
             d="M 0,0 C -0.5,0.871 -1.031,1.735 -1.566,2.59 -1.707,2.782 -1.851,2.977 -2,3.172 -2.074,3.27 -2.144,3.36 -2.219,3.457 -2.226,3.473 -2.25,3.496 -2.254,3.512 -2.285,3.547 -2.308,3.578 -2.34,3.618 c -0.125,0.164 -0.261,0.336 -0.386,0.5 -0.196,0.242 -0.383,0.488 -0.579,0.726 -10.906,9.844 -27.464,10.637 -38.191,0.438 -6.098,-5.805 -7.836,-14.5 -6.773,-22.418 1.613,-11.993 10.66,-21 22.644,-21.067 l 5.016,-0.031 c 13.222,0.613 23.086,10.973 23.07,24.383 0,2.976 -0.426,6.082 -0.937,9.14 C 1.188,-3.089 0.715,-1.492 0,0 m -14.668,-22.058 c -3.074,-4.297 -9,-4.746 -12.953,-2.824 -4.754,2.308 -6.406,7.152 -6.293,12.472 0.121,5.324 2.047,9.84 6.938,11.774 4.441,1.754 9.984,0.578 12.976,-4.239 3.074,-4.949 3.035,-12.007 -0.668,-17.183" /></g><g
           transform="translate(814.246,172.5765)"
           id="g84"><path
             id="path86"
             style="fill:#f9f7f8;fill-opacity:1;fill-rule:nonzero;stroke:none"
             d="M 0,0 C -0.09,1.363 -1.019,3.758 -2.137,4.281 -5.582,5.918 -14.043,3.98 -14.101,8.348 l -0.254,19.117 c -0.047,3.41 6.734,1.777 11.226,3.945 3.254,1.566 3.18,7.34 0.547,9.359 -5.242,4.02 -11.625,-1.253 -11.93,6.059 -0.195,4.547 -2.972,7.328 -7.336,7.18 -4.101,-0.137 -6.953,-2.453 -6.652,-7.125 0.383,-5.844 -7.066,-2.434 -9.75,-10.676 0.18,-0.328 -0.617,-0.695 1.07,-3.449 1.426,-2.332 2.321,-2.285 2.325,-2.309 2.207,0.555 6.031,-0.715 6.054,-3.066 L -28.644,8.84 c 0.074,-8.676 5.519,-16.078 14.566,-16.043 l 7.297,0.031 c 4.109,0.016 7.082,2.52 6.789,7.156 z" /></g><g
           transform="translate(949.98,205.1625)"
           id="g88"><path
             id="path90"
             style="fill:#f9f7f8;fill-opacity:1;fill-rule:nonzero;stroke:none"
             d="M 0,0 C 0.301,0.578 0.555,1.176 0.735,1.816 1.254,3.683 1.313,5.676 0.946,7.582 0.692,8.226 0.344,8.828 -0.097,9.351 l -0.422,0.317 c -3.539,2.656 -8.805,0.758 -12.582,-0.946 -6.078,-2.738 -8.102,2.282 -13.481,0.473 -1.332,-0.449 -3.539,-2.781 -3.539,-4.469 l -0.015,-38.199 c 0,-3.629 3.578,-5.383 6.676,-5.429 4.253,-0.059 6.996,2.578 7.082,6.847 l 0.484,24.547 c 4.883,5.617 11.312,3.938 15.57,7.027 C -0.21,-0.324 -0.105,-0.164 0,0" /></g><g
           transform="translate(982.547,237.0135)"
           id="g92"><path
             id="path94"
             style="fill:#f9f7f8;fill-opacity:1;fill-rule:nonzero;stroke:none"
             d="m 0,0 c -2.852,2.559 -11.051,2.223 -12.707,-2.136 l -3.75,-9.879 c -0.016,-0.043 -0.016,-0.082 -0.039,-0.125 -0.02,-0.047 -0.043,-0.09 -0.059,-0.137 l -0.433,-1.141 c -0.422,-1.511 -0.18,-3.066 1.332,-4.039 1.554,-1 3.55,-1.121 5.343,-1.074 1.325,0.031 2.571,0.27 3.719,0.781 0.016,0.008 0.024,0.028 0.035,0.036 0.121,0.074 0.235,0.144 0.348,0.226 0.051,0.035 0.105,0.074 0.148,0.113 0.024,0.012 0.024,0.012 0.032,0.02 l 0.015,0.016 c 0.196,0.16 0.383,0.324 0.563,0.503 0.172,0.172 0.336,0.344 0.5,0.524 0.047,0.055 0.09,0.105 0.136,0.16 l 5.602,11.07 C 1.414,-3.839 0.914,-0.824 0,0" /></g><g
           transform="translate(992.52,199.4945)"
           id="g96"><path
             id="path98"
             style="fill:#f9f7f8;fill-opacity:1;fill-rule:nonzero;stroke:none"
             d="m 0,0 c 0,1.437 -0.801,4.672 -1.215,6.094 -3.45,5.687 -8.895,9.023 -15.246,10.687 -1.368,0.16 -2.739,0.285 -4.11,0.34 -1.719,0.066 -3.445,0.035 -5.152,-0.129 -1.399,-0.133 -2.785,-0.434 -4.18,-0.59 l -5.691,-1.554 c -0.055,-0.032 -0.098,-0.067 -0.16,-0.082 -0.215,-0.075 -0.426,-0.149 -0.645,-0.235 -0.098,-0.035 -0.187,-0.074 -0.285,-0.109 -0.051,-0.024 -0.102,-0.039 -0.156,-0.063 h 0.008 c -0.016,0 -0.024,-0.015 -0.032,-0.015 -0.41,-0.18 -0.808,-0.379 -1.183,-0.629 -0.09,-0.059 -0.18,-0.125 -0.27,-0.188 l -0.015,-0.015 c -0.047,-0.036 -0.083,-0.067 -0.129,-0.106 -0.164,-0.14 -0.305,-0.297 -0.45,-0.465 v -0.004 c -0.031,-0.047 -0.058,-0.093 -0.089,-0.136 -0.059,-0.09 -0.114,-0.188 -0.165,-0.278 -0.023,-0.039 -0.066,-0.105 -0.074,-0.148 0.016,0.027 0.02,0.051 0.035,0.082 -0.015,-0.039 -0.027,-0.07 -0.035,-0.106 -0.008,-0.023 -0.015,-0.054 -0.023,-0.074 -0.098,-0.465 -0.164,-0.933 -0.203,-1.402 0.058,-0.692 0.054,-1.383 0,-2.051 0.066,-0.867 0.211,-1.738 0.414,-2.594 0.015,-0.05 0.035,-0.105 0.051,-0.148 0.054,-0.106 0.097,-0.211 0.152,-0.309 0.109,-0.203 0.23,-0.398 0.367,-0.586 0.027,-0.043 0.059,-0.089 0.098,-0.125 0.004,-0.015 0.027,-0.039 0.043,-0.062 0.066,-0.09 0.144,-0.172 0.218,-0.254 0.125,-0.145 0.262,-0.277 0.403,-0.406 1.375,-0.793 3.008,-1.059 4.855,-0.758 7.535,1.223 15.418,2.191 17.25,-3.426 -7.015,-2.535 -14.484,1.5 -22.734,-5.363 -4.508,-3.75 -6.524,-9.801 -5.285,-15.449 2.504,-11.414 15.101,-15.84 26.625,-11.762 6.101,2.16 10.07,-2.113 14.449,0.812 1.187,0.793 2.613,3.622 2.613,5.243 L 0.015,0.012 Z m -16.622,-19.383 c -3.23,-1.98 -7.039,-2.66 -10.597,-1.141 -0.93,0.399 -2.211,2.528 -2.09,3.52 0.492,4.207 7.738,5.469 13.957,3.051 0.848,-1.957 0.48,-4.364 -1.277,-5.43 z" /></g><g
           transform="translate(1030.922,171.3306)"
           id="g100"><path
             id="path102"
             style="fill:#f9f7f8;fill-opacity:1;fill-rule:nonzero;stroke:none"
             d="m 0,0 -0.203,27.269 c -0.047,5.602 -7.449,5.61 -14.86,3.489 L -15.285,2.797 c -0.039,-4.446 -2.453,-7.094 -6.461,-7.485 -3.102,-0.3 -7.574,1.649 -7.582,5.758 l -0.035,25.524 c -0.008,7.359 -9.137,4.296 -8.379,11.55 0.707,6.766 7.89,4.426 8.445,10.149 0.937,9.621 8.063,16.711 17.707,18.312 H 4.461 c 3.898,0 6.133,-3.484 5.945,-6.679 -0.215,-3.774 -3.516,-6.348 -7.566,-5.512 -9.043,1.859 -17.938,-0.473 -17.879,-7.684 0.015,-1.316 2.945,-2.953 4.344,-2.945 l 17.347,0.098 c 4.305,0.023 7.199,-2.657 7.207,-7.18 L 13.902,2.746 c 0,-1.68 -1.035,-4.996 -2.234,-5.852 -1.649,-1.175 -4.762,-1.769 -6.434,-1.539 -1.672,0.235 -5.23,2.215 -5.25,4.637 z" /></g><g
           transform="translate(542.055,172.8615)"
           id="g104"><path
             id="path106"
             style="fill:#f9f7f8;fill-opacity:1;fill-rule:nonzero;stroke:none"
             d="m 0,0 c -8.918,10.688 -8.024,26.645 1.289,36.395 6.359,6.66 15.511,7.816 24.301,5.82 0.992,-0.223 2.761,2.125 2.777,3.18 l 0.172,13.367 c 0.043,3.711 3.254,5.535 6.742,5.488 2.555,-0.027 6.637,-1.336 6.629,-4.738 L 41.871,-1.793 c 0,-3.789 -5.145,-5.371 -7.852,-4.441 C 30.383,-4.98 27.734,-5.746 24.261,-6.66 15.816,-8.891 6.007,-7.211 -0.008,0 Z m 27.457,9.164 c 1.531,4.02 0.91,8.848 1.043,12.793 0.172,5.063 -2.602,8.109 -7.344,8.664 C 15.203,31.32 10.043,28.176 9.082,21.852 8.468,17.805 8.476,13.012 10.457,9.305 c 1.722,-3.231 5.465,-4.61 8.652,-4.574 2.762,0.031 7.02,0.945 8.34,4.433 z" /></g><g
           transform="translate(720.832,206.0496)"
           id="g108"><path
             id="path110"
             style="fill:#f9f7f8;fill-opacity:1;fill-rule:nonzero;stroke:none"
             d="M 0,0 C 3.602,-0.032 4.59,-4.465 4.449,-6.707 4.23,-10.051 1.727,-12.52 -2.031,-12.551 L -21.246,-12.7 c -1.09,-1.074 -2.34,-3.668 -2.348,-5.129 l -0.09,-16.539 c -0.023,-3.644 -3.375,-5.347 -6.757,-5.421 -3.145,-0.075 -7.352,1.597 -7.36,5.675 l -0.125,52.981 c -0.008,3.992 2.586,7.508 6.817,7.5 L 1.754,26.339 c 3.773,0 5.91,-2.64 6.203,-5.664 C 8.219,18 6.871,13.785 3.219,13.761 l -19.442,-0.129 c -1.843,-0.015 -4.535,-0.496 -6.195,-1.199 -1.664,-3.637 -1.453,-7.312 -0.035,-11.332 L -13.16,0.109 -0.008,0 Z" /></g><g
           transform="translate(660.938,190.6276)"
           id="g112"><path
             id="path114"
             style="fill:#f9f7f8;fill-opacity:1;fill-rule:nonzero;stroke:none"
             d="m 0,0 c 0,-14.25 -11.551,-25.809 -25.793,-25.809 -14.243,0 -25.793,11.551 -25.793,25.809 0,14.257 11.55,25.808 25.793,25.808 C -11.551,25.808 0,14.257 0,0 m -17.469,-9.129 c 3.707,5.176 3.75,12.234 0.668,17.183 -3.082,4.95 -8.535,5.993 -12.973,4.239 -4.891,-1.934 -6.82,-6.442 -6.937,-11.774 -0.122,-5.336 1.535,-10.164 6.289,-12.472 3.953,-1.922 9.879,-1.473 12.953,2.824" /></g><g
           transform="translate(1142.203,190.6276)"
           id="g116"><path
             id="path118"
             style="fill:#f9f7f8;fill-opacity:1;fill-rule:nonzero;stroke:none"
             d="m 0,0 c 0,-14.25 -11.539,-25.801 -25.781,-25.801 -14.246,0 -25.785,11.551 -25.785,25.801 0,14.25 11.539,25.8 25.785,25.8 C -11.539,25.8 0,14.25 0,0 m -17.473,-9.129 c 3.704,5.176 3.75,12.234 0.668,17.183 -2.992,4.817 -8.535,5.993 -12.976,4.239 -4.891,-1.934 -6.817,-6.442 -6.938,-11.774 -0.121,-5.336 1.539,-10.164 6.293,-12.472 3.953,-1.922 9.879,-1.473 12.953,2.824" /></g><g
           transform="translate(1066.012,181.0645)"
           id="g120"><path
             id="path122"
             style="fill:#f9f7f8;fill-opacity:1;fill-rule:nonzero;stroke:none"
             d="m 0,0 c 7.148,-6.457 15.031,-1.426 21.547,-3.074 1.75,-0.441 2.793,-4.102 2.476,-5.805 -0.293,-1.566 -1.867,-4.297 -3.797,-4.98 -8.816,-3.137 -18.5,-2.836 -26.668,1.738 -8.168,4.578 -12.054,13.668 -11.527,22.938 0.801,14.363 11.969,24.41 26.281,24.113 4.492,-0.094 8.977,-0.383 12.848,-3.016 1.601,-1.09 2.359,-4.41 2.031,-6.265 -0.308,-1.754 -2.902,-4.504 -5.094,-4.227 -4.379,0.555 -8.57,1.387 -12.66,0.516 -6,-1.266 -8.945,-6.864 -8.648,-12.594 0.176,-3.289 0.57,-6.957 3.219,-9.352 z" /></g><g
           transform="translate(599.422,166.2755)"
           id="g124"><path
             id="path126"
             style="fill:#f9f7f8;fill-opacity:1;fill-rule:nonzero;stroke:none"
             d="m 0,0 c -4.664,-0.211 -7.762,2.781 -7.762,7.16 v 33.961 c 0,4.449 2.543,7.321 6.36,7.742 3.308,0.36 7.703,-1.824 7.703,-5.992 L 6.324,5.453 C 6.324,2.176 3.277,0.149 0,0" /></g><g
           transform="translate(517.582,221.2205)"
           id="g128"><path
             id="path130"
             style="fill:#f9f7f8;fill-opacity:1;fill-rule:nonzero;stroke:none"
             d="m 0,0 c -2.273,-4.418 -8.168,-5.976 -11.609,-2.16 -1.215,1.348 -0.692,5.496 0.007,7.192 l 3.336,8.109 c 2.207,5.348 10.27,5.055 12.954,2.652 0.929,-0.832 1.441,-3.867 0.839,-5.031 z" /></g><g
           transform="translate(602.016,232.0135)"
           id="g132"><path
             id="path134"
             style="fill:#f9f7f8;fill-opacity:1;fill-rule:nonzero;stroke:none"
             d="M 0,0 C 4.652,-1.734 4.929,-7.863 2.347,-11.183 0.031,-14.16 -5.61,-14.5 -8.555,-11.519 -11.504,-8.543 -11.204,-2.355 -6.93,-0.121 -5.528,0.614 -1.828,0.68 0,0" /></g><g
           transform="translate(732.766,484.4395)"
           id="g136"><path
             id="path138"
             style="fill:#f9f7f8;fill-opacity:1;fill-rule:nonzero;stroke:none"
             d="m 0,0 -19.059,-2.828 -27.074,-0.09 c -4.426,-0.015 -14.805,2.356 -15.684,4.957 -1.062,3.153 5.102,6.684 9.727,9.168 l 12.66,6.809 14.613,7.828 15.043,8.273 12.039,6.766 13.422,10.656 13.195,10.028 10.161,9.961 11.89,12.152 4.16,4.812 c 3.789,4.379 7.278,8.34 9.676,13.657 l 5.129,11.363 6.676,15.832 c 2.191,5.199 3.969,9.66 5.039,15.309 l 6.055,31.816 4.527,27.016 4.285,31.234 1.801,17.012 c 0.695,6.601 0.351,13.086 -0.242,19.695 l -0.684,7.656 -0.465,22.336 -3.058,18.606 -4.274,15.105 c -3.062,10.809 -7.008,20.633 -12.203,30.527 -8.027,15.262 -17.047,29.09 -28.32,42.196 -7.852,9.125 -15.227,18.019 -24.219,26.054 l -17.836,15.915 -26.723,19.671 -10.16,6.278 -15.285,8.812 c -17.422,10.051 -36.226,16.539 -55.117,23.512 l -17.152,4.695 -22.547,5.313 -21.133,2.797 -8.805,0.816 -36.242,-0.113 -27.254,-1.992 c -1.32,-0.098 -3.691,1.64 -3.805,2.789 -0.5,4.972 9.731,7.043 17.289,7.808 l 18.907,1.926 35.445,-0.031 30.367,-3.305 29.047,-6.137 17.82,-5.445 21.098,-6.719 33.383,-14.633 18.773,-9.773 15.465,-8.437 27.969,-16.997 1.805,-0.171 c 0.496,-0.043 0.347,1.386 0.25,2.273 l -35.965,53.086 -20.43,26.129 -12.5,13.074 c -17.25,16.258 -36.082,30.051 -56.859,41.262 l -11.301,6.097 c -17.34,9.364 -56.125,20.215 -75.699,21.789 l -20.371,1.637 -16.2,0.59 c -1.027,0.039 -2.789,1.742 -3.007,2.633 -0.247,1.027 1.621,3.187 2.703,3.269 l 11.34,0.887 17.226,0.133 20.461,-2.172 29.715,-6.355 26.473,-8.032 33.609,-13.621 12.277,-6.5 c 4.035,-2.14 7.903,-4.554 12.727,-6.039 -5.293,14.469 -10.746,27.242 -13.656,41.731 l -0.735,7.41 0.051,14.855 c 1.215,8.063 3.961,15.571 6.684,23.176 1.183,3.309 3.695,6.555 6.277,8.598 2.324,1.828 6.215,1.062 6.93,-1.711 0.816,-3.18 -1.172,-6.031 -2.137,-8.942 -2.094,-6.308 -4.277,-12.871 -5.004,-19.543 v -17.98 c -0.016,-8.969 13.547,-35.539 20.004,-45.742 7.43,-11.742 16.117,-22.055 25.242,-32.422 l 16.883,-19.16 13.523,-15.766 23.207,-29.215 24.321,-33.472 30.144,-46.223 c 1.305,-2 2.438,-3.359 4.598,-4.656 l 1.437,9.937 0.61,7.531 0.359,27.743 0.774,7.461 c 0.589,5.707 0.195,11.07 0.195,16.71 v 17.504 c 1.004,11.942 0.223,23.567 -1.133,35.508 l -2.336,20.449 c -3.066,26.868 -18.277,66.715 -38.527,85.676 -8.52,7.977 -17.309,15.09 -27.848,20.098 l -14.594,5.047 c -3.863,1.336 -7.086,3.187 -6.597,6.234 0.726,4.524 15.996,0.629 24.246,-2.976 30.082,-13.157 51.039,-33.086 65.488,-62.641 l 5.598,-11.438 c 0.238,-0.488 1.297,-1.253 1.715,-1.449 0.421,-0.195 1.402,1.156 1.457,1.629 l 1.175,11.383 2.153,18.062 c 1.539,12.946 3.375,25.618 6.918,38.137 l 7.422,26.293 c 6.421,22.75 22.007,46.547 37.8,64.238 5.52,6.18 12.219,10.661 18.93,15.547 l 13.906,10.125 c 0.977,0.715 4.508,0.114 5.055,-0.957 0.578,-1.133 0.465,-3.113 0.016,-4.89 -5.438,-7.102 -11.805,-12.661 -19.786,-17.086 -7.253,-8.004 -14.984,-15.645 -20.617,-24.946 l -8.789,-14.519 c -4.449,-7.356 -6.676,-15.465 -9.355,-23.723 -6.481,-19.965 -10.297,-39.976 -11.684,-60.929 l 0.66,-17.762 c 0.024,-0.637 2.266,-0.473 2.723,0.144 7.582,10.395 15,20.602 24.785,29.032 l 19.391,13.726 c 7.23,5.121 14.554,10.238 23.187,12.621 l 15.871,4.387 21.797,2.566 9.711,-0.398 c 2.856,-0.117 4.918,-2.363 5.012,-4.883 0.082,-2.25 -2.281,-4.68 -4.981,-4.648 -15.347,0.179 -32.402,-5.52 -46.597,-11.852 -7.938,-3.531 -14.723,-8.359 -21.586,-13.777 -7.86,-6.196 -15.449,-12.36 -21.332,-20.645 L 151.769,599.34 c -9.855,-17.16 -11.82,-33.359 -13.734,-52.371 l -0.809,-8.035 -0.676,-21.156 -0.246,-23.559 0.856,-17.219 0.66,-9.039 0.777,-10.484 0.782,-10.492 0.816,-10.29 3.504,-24.156 2.226,-18.894 6.555,-52.418 0.789,-9 0.606,-8.332 c 0.047,-0.59 0.933,-2.086 1.5,-2.219 0.714,-0.164 2.453,0.621 2.906,1.223 l 24.117,32.097 26.617,31.028 22.614,30.668 c 4.867,6.593 8.859,13.367 12.269,20.746 l 4.297,9.277 c 13.211,28.516 16.988,39.254 13.426,72.285 -0.711,6.617 -2.063,12.524 -3.809,18.863 -3.512,12.75 -7.375,24.786 -14.078,36.36 -0.578,0.996 -0.156,3.488 0.457,4.379 0.699,1.015 3.797,1.636 4.809,0.91 4.027,-2.867 5.847,-6.707 8.203,-10.758 5.633,-9.687 9.617,-19.695 13.222,-30.32 2.348,-6.922 3.399,-13.387 4.067,-20.68 l 1.5,-16.312 c 1.445,-15.75 -1.059,-31.086 -4.485,-46.543 l -1.386,-9.211 c -0.078,-0.504 0.531,-1.934 0.84,-2.258 0.304,-0.32 1.55,-0.016 1.949,0.25 9.871,6.523 19.476,13.027 30.586,17.242 l 11.496,4.363 13.859,3.465 32.086,6.278 c 10.192,1.996 19.68,3.007 30.141,3.015 h 10.508 l 11.761,-0.594 c 1.477,-0.074 3.653,-2.683 3.864,-4.07 0.253,-1.75 -1.598,-4.195 -3.692,-4.703 -11.437,-2.789 -22.59,-3.586 -34.262,-4.816 l -30.679,-7.258 c -21.356,-5.055 -47.574,-18.293 -64.278,-32.59 l -21.8,-18.66 C 251.66,393.645 242.976,381.082 233.601,368.211 222.808,353.399 214.183,338.207 205.289,322.27 L 186.488,288.578 180.32,277.59 c -0.477,-0.863 1.562,-2.766 2.355,-2.559 12.985,3.446 25.563,5.664 38.942,6.93 l 20.422,1.93 40.941,-0.016 14.223,-1.531 20.414,-3.344 c 11.301,-1.851 22.238,-4.312 32.902,-8.234 l 14.391,-5.297 c 10.375,-3.816 19.816,-9.133 29.347,-14.66 1.434,-0.824 2.364,-3.84 1.864,-5.063 -0.504,-1.222 -3.481,-2.492 -5.028,-2.019 l -37.437,11.543 -30.07,6.75 -12.766,1.484 -12.652,1.891 -12.098,0.617 -21.719,0.012 -14.363,-0.719 -12.856,-2.684 -15.187,-4.32 c -10.934,-4.598 -21.156,-10.906 -30,-18.434 -8.023,-6.836 -12.938,-14.972 -16.145,-24.656 -2.8,-8.437 -6.332,-16.59 -6.324,-25.777 l 0.047,-37.746 3.285,-30.953 c 0.387,-3.645 1.242,-7.149 2.16,-10.664 l 5.465,-20.954 c 3.442,-9.609 8.446,-19.007 15.262,-26.543 l 8.223,-9.089 12.507,-10.676 c 12.407,-8.903 26.207,-14.348 40.45,-19.61 10.41,-3.847 20.414,-6.855 31.246,-9.175 l 11.75,-2.512 c 2.004,-0.426 4.14,-2.691 4.254,-4.438 0.132,-2.16 -2.118,-4.597 -4.555,-4.906 L 284.472,0.235 260.64,0.18 253.867,0.938 243.406,1.711 226.589,4.321 200.648,9.059 C 190.437,10.93 180.765,9.945 171.855,4.754 l -27.242,-9.57 c -11.945,-1.656 -23.918,-1.641 -36.035,-0.387 l -20.25,6.93 C 76.453,5.789 65.113,9.317 52.41,10.117 47.714,10.41 43.043,9.016 38.382,8.012 L 23.535,4.793 11.039,1.449 0.05,0.016 Z" /></g><g
           transform="translate(1063.8521,973.8815)"
           id="g140"><path
             id="path142"
             style="fill:#f3abbf;fill-opacity:1;fill-rule:nonzero;stroke:none"
             d="m 0,0 -13.321,-4.395 -17.586,-4.387 c -1.972,-0.496 -4.367,1.457 -4.711,3.547 -0.683,4.102 -0.121,8.078 0.098,12.293 0.547,10.434 2.227,20.289 4.98,30.301 l 3.719,13.543 4.719,12.633 c 2.52,6.734 5.43,12.922 9.766,18.718 L -2.7,95.132 c 8.934,11.938 29.582,25.411 44.227,30.856 11.73,4.363 22.988,9.215 35.699,9.762 1.344,0.062 3.453,-0.247 4.285,-0.86 0.832,-0.617 1.801,-2.972 1.688,-4.008 L 81.406,113.605 78.031,95.086 74.957,81.062 69.668,66.078 64.867,55.929 56.828,43.113 42.789,27.195 C 35.836,19.312 26.957,13.906 17.867,8.589 L -0.016,0 Z" /></g><g
           transform="translate(1207.156,982.0805)"
           id="g144"><path
             id="path146"
             style="fill:#f3abbf;fill-opacity:1;fill-rule:nonzero;stroke:none"
             d="m 0,0 -8.984,-3.856 -9.969,-2.691 -20.594,-1.574 -12.82,0.117 c -10.672,0.098 -39.391,4.726 -36.586,11.941 l 4.188,10.77 c 2.472,6.367 6.328,11.258 10.418,16.648 11.832,15.594 26.382,28.231 43.925,37.114 12.309,6.23 26.965,9.109 40.957,10.761 l 18.071,-0.023 10.437,-0.676 c 8.281,-0.539 15.563,-2.633 23.25,-5.363 l 8.363,-2.969 c 2.766,-0.98 4.711,-4.266 3.278,-7.266 L 69.352,53.34 C 67.559,49.582 65.188,46.156 62.414,43.066 L 52.063,31.543 C 45.672,24.426 37.528,19.012 29.684,13.508 22.02,8.129 9.801,2.699 0,-0.008 Z" /></g><g
           transform="translate(1306.8831,924.9745)"
           id="g148"><path
             id="path150"
             style="fill:#f3abbf;fill-opacity:1;fill-rule:nonzero;stroke:none"
             d="M 0,0 -23.949,-2.968 C -29.363,-3.644 -34.418,-5.16 -40.02,-4.605 l -13.449,1.336 -19.328,4.058 -9.981,2.707 c -6.886,1.868 -12.699,5.918 -18.742,9.54 -6.742,4.042 -13.336,7.769 -18.863,13.539 -5.078,5.293 19.875,20.382 28.867,24.652 l 17.844,5.277 c 9.863,2.918 20.277,4.18 30.598,3.742 l 7.769,-0.937 c 3.836,0.562 6.969,0.266 10.473,-1.035 7.336,-0.379 14.48,-1.52 21.402,-3.996 L 7.64,50.317 C 24.547,44.266 40.801,36.735 55.363,26.235 56.992,22.614 54.937,19.926 51.644,18.106 L 33.539,10.442 12.082,3.196 -0.016,-0.007 Z" /></g><g
           transform="translate(1249.1331,883.0065)"
           id="g152"><path
             id="path154"
             style="fill:#f3abbf;fill-opacity:1;fill-rule:nonzero;stroke:none"
             d="m 0,0 c 7.035,-7.719 11.969,-18.84 4.711,-20.372 l -27.453,-5.773 -14.227,-0.93 c -6.816,-0.445 -13.34,0.93 -20.277,2.145 -22.973,4.019 -43.133,16.699 -58.098,34.656 -6.105,7.328 -10.535,15.727 -14.309,24.488 l -5.316,15.75 c -0.828,2.454 1.25,5.473 3.695,5.75 l 8.903,1.024 13.394,0.367 12.266,-0.234 25.648,-4.461 c 12.203,-2.125 23.414,-7.86 33.817,-14.957 L -17.137,21.711 -3.66,6.628 0,-0.008 Z" /></g><g
           transform="translate(1131.457,752.6705)"
           id="g156"><path
             id="path158"
             style="fill:#f3abbf;fill-opacity:1;fill-rule:nonzero;stroke:none"
             d="m 0,0 c -8.812,0.246 -35.137,7.711 -43.566,12.23 -2.723,1.465 -2.575,4.742 -0.817,6.707 2.34,2.61 4.305,5.211 5.922,8.317 2.043,3.914 5.152,6.691 8.152,9.812 4.036,4.191 7.868,8.137 12.805,11.242 l 12.875,8.106 10.563,5.215 c 7.484,3.687 15.277,5.82 23.64,6.472 l 15.953,1.242 13.551,-0.605 16.344,-2.527 14.137,-3.172 12.218,-2.91 c 1.559,-0.375 3.801,-1.532 4.528,-2.625 3.269,-4.93 -8.375,-19.223 -14.543,-24.782 l -9.09,-8.199 C 74.859,17.48 65.707,13.175 55.672,9.504 L 49.922,6.351 C 37.184,3.457 24.902,0.578 11.789,-0.317 L -0.008,0.015 Z" /></g><g
           transform="translate(1165.027,658.0565)"
           id="g160"><path
             id="path162"
             style="fill:#f3abbf;fill-opacity:1;fill-rule:nonzero;stroke:none"
             d="m 0,0 c 0.93,-6.945 -6.488,-7.875 -15.039,-7.746 l -18.687,0.278 -15.309,1.695 C -62.683,-4.257 -74.48,0.309 -86.332,7.125 -108.277,19.75 -123.953,40.2 -131.765,64.336 l -4.172,10.067 c -0.442,1.062 -0.324,3.465 0.254,4.312 0.66,0.965 2.894,2.039 4.375,1.985 l 15.156,-0.524 c 7.949,-0.277 15.457,-1.004 23.203,-3.211 l 17.063,-4.859 c 8.312,-2.363 16.015,-6.547 23.461,-10.899 l 22.644,-16.402 c 6.207,-4.5 10.305,-11.039 15.203,-16.988 3.344,-4.063 5.61,-8.27 8.09,-12.938 2.535,-4.754 5.68,-8.863 6.481,-14.871 z" /></g><g
           transform="translate(1036.719,778.8615)"
           id="g164"><path
             id="path166"
             style="fill:#f3abbf;fill-opacity:1;fill-rule:nonzero;stroke:none"
             d="m 0,0 -15.653,0.133 c -6.714,0.062 -19.23,-1.559 -17.793,6.66 l 2.836,16.164 c 1.387,7.918 5.567,14.953 9.047,22.152 3.93,8.133 7.942,16.09 14.438,22.301 8.25,7.887 17.144,14.727 27.855,18.531 7.117,2.528 14.25,4.254 21.567,4.641 l 13.148,0.707 c 4.531,0.238 10.711,0.848 14.41,-2.355 4.168,-6.571 3.028,-14.828 1.731,-22.176 C 70.492,60.59 70.883,53.961 68.047,48.426 L 61.707,36.035 C 58.461,29.684 53.179,24.734 48.008,19.828 L 36.187,11.367 C 30.832,7.535 6.937,-0.055 -0.008,0.008 Z" /></g><g
           transform="translate(1009.402,1045.9785)"
           id="g168"><path
             id="path170"
             style="fill:#f3abbf;fill-opacity:1;fill-rule:nonzero;stroke:none"
             d="m 0,0 -5.668,12.188 c -2.679,5.761 -4.546,11.73 -6.031,17.949 l -3.473,14.469 -2.648,19.039 -0.391,17.527 c 0.946,14.551 5.215,28.301 10.817,41.438 3.719,8.73 8.781,15.601 15.418,22.211 l 7.48,7.445 c 0.672,0.668 2.977,1.41 3.899,1.297 4.867,-0.571 12.898,-22.543 15.75,-31.625 1.59,-5.071 2.468,-9.895 2.879,-15.266 L 39.547,87.16 C 39.422,71.16 35.399,55.711 30.555,40.262 26.395,26.992 14.25,10.66 4.793,-0.531 3.938,-1.543 0.594,-1.304 -0.007,-0.008 Z" /></g><g
           transform="translate(1245.578,691.2095)"
           id="g172"><path
             id="path174"
             style="fill:#f3abbf;fill-opacity:1;fill-rule:nonzero;stroke:none"
             d="m 0,0 -20.68,-1.434 -10.421,0.031 -14.043,1.868 c -22.739,4.144 -43.356,15.328 -58.153,33.253 -0.758,0.915 -1.402,3.09 -1.133,4.036 0.27,0.945 1.86,2.683 2.797,2.968 l 25.215,7.563 18.629,3.164 14.641,0.57 c 6.242,0.239 11.949,0.492 18.008,-0.847 9.308,-0.547 17.917,-3.055 26.859,-5.274 13.168,-3.269 25.129,-7.867 36.449,-15.344 5.52,-3.644 13.688,-9.691 13.043,-14.011 -0.168,-1.118 -1.793,-2.887 -2.957,-3.328 L 28.543,5.797 C 24.082,4.117 19.606,2.781 14.902,2.113 L 0.008,0.004 Z" /></g><g
           transform="translate(965.641,1193.6704)"
           id="g176"><path
             id="path178"
             style="fill:#f3abbf;fill-opacity:1;fill-rule:nonzero;stroke:none"
             d="m 0,0 c -10.289,-4.547 -21.465,-4.883 -32.055,-4.832 l -13.742,2.996 c -6.395,1.394 -17.586,5.422 -18.434,9.644 -0.246,1.242 0.613,3.59 1.336,5.024 5.211,10.441 10.535,20.304 17.813,29.445 6.785,8.527 21.179,17.699 31.836,19.898 L 0.554,65.011 18.66,66 28.476,65.683 41.218,65.226 55.566,63.324 c 0.969,-0.129 2.762,-1.613 3.156,-2.5 0.399,-0.883 -0.109,-3.09 -0.664,-3.938 L 48.156,41.836 C 39.507,28.695 28.222,17.379 15.39,8.086 10.851,4.793 5.375,2.379 -0.008,0 Z" /></g><g
           transform="translate(824.707,1131.4125)"
           id="g180"><path
             id="path182"
             style="fill:#f3abbf;fill-opacity:1;fill-rule:nonzero;stroke:none"
             d="m 0,0 c -8.437,5.586 -15.406,11.594 -21.695,19.117 l -6.496,7.754 -7.336,10.758 c -8.43,12.367 -15.996,25.312 -19.688,40.027 l -7.828,31.199 -2.723,21.481 c -0.121,0.945 0.711,3.082 1.297,3.703 2.805,2.965 17.008,-3.629 23.391,-7.535 l 12.543,-7.68 c 6.898,-4.223 11.855,-9.945 16.707,-16.336 C -4.336,92.601 0.879,82.156 3.707,69.988 6.254,59.055 8.504,48.375 8.699,37.019 9.246,24.344 8.926,12.367 7.156,-0.098 6.18,-0.93 4.816,-1.949 3.961,-1.988 2.969,-2.031 1.254,-0.832 -0.008,0.008 Z" /></g><g
           transform="translate(964.891,1269.3064)"
           id="g184"><path
             id="path186"
             style="fill:#f3abbf;fill-opacity:1;fill-rule:nonzero;stroke:none"
             d="m 0,0 -12.903,0.547 -9.164,1.141 c -9.418,1.172 3.254,31.754 10.742,42.105 4.282,5.918 9.344,10.762 15.516,14.567 7.621,4.687 15.391,9.59 24.164,11.644 l 21.797,5.117 c 9.695,2.274 19.355,2.176 29.062,0.922 C 88.918,74.789 77.48,54.832 71.187,46.067 L 62.097,33.399 51.562,22.914 C 45.121,16.5 28.761,7.2 19.793,4.395 13.5,2.43 6.718,-0.293 -0.008,-0.007 Z" /></g><g
           transform="translate(982.793,966.9905)"
           id="g188"><path
             id="path190"
             style="fill:#f3abbf;fill-opacity:1;fill-rule:nonzero;stroke:none"
             d="m 0,0 c -3.066,-12.156 -7.289,-22.988 -13.328,-33.465 -1.281,-2.226 -4.883,-3.391 -6.727,-1.133 -4.937,6.016 -9.179,12.36 -12.773,19.395 -3.082,6.031 -4.418,12.578 -6.328,19.191 -6.633,22.973 -3.024,53.125 4.82,75.782 2.199,6.351 5.129,11.917 8.992,17.363 1.067,1.5 4.613,0.367 5.762,-0.774 C -9.594,86.422 -4.277,70.574 -1.547,56.578 0.156,47.82 0.301,39.375 0.66,30.41 L 1.168,17.609 0.008,0 Z" /></g><g
           transform="translate(914.617,1058.1465)"
           id="g192"><path
             id="path194"
             style="fill:#f3abbf;fill-opacity:1;fill-rule:nonzero;stroke:none"
             d="m 0,0 c -7.164,0.125 -16.387,0.531 -15.871,6.688 0.641,7.5 2.16,14.226 4.481,21.113 4.402,13.043 14.171,30.855 24.269,39.547 l 9.313,8.019 c 2.418,2.075 4.972,3.653 7.996,4.664 9.832,3.286 27.808,7.629 31.832,0.981 C 64.746,76.5 61.746,70.11 61.559,65.317 61.117,53.895 55.125,41.106 48.75,31.469 37.012,13.723 22.141,-0.375 0,0.012 Z" /></g><g
           transform="translate(563.684,1128.6234)"
           id="g196"><path
             id="path198"
             style="fill:#f3abbf;fill-opacity:1;fill-rule:nonzero;stroke:none"
             d="M 0,0 C 2.16,-9.063 -17.375,-0.832 -27.043,2.828 -36.27,6.312 -44.504,11 -53.098,15.801 c -7.914,4.418 -15.188,8.836 -22.367,14.347 l -17.813,13.68 -16.258,13.855 c -0.66,0.563 -1.476,2.45 -1.171,3.231 1.574,4.066 29.894,5.949 40.222,4.754 l 13.336,-1.535 c 6.106,-0.707 11.481,-3.766 17.016,-5.993 8.527,-3.421 14.902,-8.379 20.777,-15.421 8.078,-9.692 14.258,-21.301 17.211,-33.684 l 2.16,-9.043 z" /></g><g
           transform="translate(818.625,1059.7054)"
           id="g200"><path
             id="path202"
             style="fill:#f3abbf;fill-opacity:1;fill-rule:nonzero;stroke:none"
             d="m 0,0 c 2.297,-11.738 -22.836,-7.93 -34.664,1.258 l -7.629,5.925 c -14.625,14.567 -28.168,38.192 -28.41,58.762 -0.035,3.031 2.094,4.785 4.801,5.258 17.781,3.105 35.371,-8.789 46.14,-22.715 l 6.606,-10.59 C -6.937,25.808 -2.617,13.344 -0.008,0.008 Z" /></g><g
           transform="translate(857.738,1214.0415)"
           id="g204"><path
             id="path206"
             style="fill:#f3abbf;fill-opacity:1;fill-rule:nonzero;stroke:none"
             d="m 0,0 c -1.785,-11.574 -26.004,15.285 -32.25,33.125 l -7.375,21.054 c -2.984,8.52 -1.957,17.821 -2.707,26.715 -0.465,5.461 0.324,10.434 1.973,15.875 2.047,1.051 4.668,0.504 6.961,-0.238 C -13.777,90.164 0.696,73.476 2.871,52.812 5.039,44.562 5.617,36.328 4.313,27.859 L 0.016,0.008 Z" /></g><g
           transform="translate(445.059,1004.0925)"
           id="g208"><path
             id="path210"
             style="fill:#f3abbf;fill-opacity:1;fill-rule:nonzero;stroke:none"
             d="m 0,0 -5.043,3.734 c -10.078,3.789 -17.743,10.246 -23.903,18.879 -4.062,5.699 -9.246,13.051 -4.047,16.664 l 17.735,12.344 C -5.125,58.671 14.55,57.457 26.25,49.183 33.367,44.152 38.781,37.335 43.589,29.851 47.902,23.128 31.468,7.418 18.293,3.164 12.48,1.289 6.539,0.863 -0.016,0.007 Z" /></g><g
           transform="translate(738.898,1205.0415)"
           id="g212"><path
             id="path214"
             style="fill:#f3abbf;fill-opacity:1;fill-rule:nonzero;stroke:none"
             d="m 0,0 c 4.481,-9.18 14.582,-30.535 10.946,-34.735 -0.731,-0.839 -2.813,-1.632 -4.254,-1.55 -16.754,0.988 -32.086,8.691 -43.641,20.894 -9.738,10.266 -18.617,20.902 -24.64,33.785 l -5.168,12.774 c -0.368,0.914 -0.395,3.226 -0.059,4.066 0.398,0.973 2.582,1.965 3.699,1.91 l 11.723,-0.574 c 7.101,-0.355 14.82,-2.336 21.312,-5.484 12.235,-5.934 24.016,-18.684 30.075,-31.094 z" /></g><g
           transform="translate(891.684,1256.3925)"
           id="g216"><path
             id="path218"
             style="fill:#f3abbf;fill-opacity:1;fill-rule:nonzero;stroke:none"
             d="m 0,0 -11.043,15.336 c -4.469,6.211 -7.977,12.633 -10.879,19.824 -2.2,5.461 -5.614,10.821 -6.25,16.852 -0.785,7.426 1.906,15.332 5.769,21.594 2.063,3.336 5.766,6.246 9.067,7.996 3.66,1.933 7.687,0.18 11.004,-1.309 9.71,-4.355 17.414,-10.777 22.941,-19.984 2.984,-10.426 4.926,-22.027 0,-32.102 L 7.347,1.094 C 6.898,0.18 5.136,-1.183 4.242,-1.539 3.222,-1.941 0.687,-0.961 0.007,-0.008 Z" /></g><g
           transform="translate(448.125,1105.0415)"
           id="g220"><path
             id="path222"
             style="fill:#f3abbf;fill-opacity:1;fill-rule:nonzero;stroke:none"
             d="m 0,0 c -2.551,-0.172 -6.098,1.402 -8.73,1.875 -6.766,1.222 -12.809,3.09 -19.11,5.746 l -24.226,10.191 c -4.739,1.996 3.632,8.305 10.898,11.258 l 12.227,4.973 c 10.011,4.074 20.617,5.445 31.32,2.754 6.848,0.922 12.762,-1.336 18.613,-4.352 C 29.746,27.929 45.832,19.953 38.961,14.054 34.02,9.82 28.566,5.859 22.223,3.969 14.852,1.777 7.582,0.519 0.008,0 Z" /></g><g
           transform="translate(559.793,1041.4865)"
           id="g224"><path
             id="path226"
             style="fill:#f3abbf;fill-opacity:1;fill-rule:nonzero;stroke:none"
             d="m 0,0 c 2.43,-7.625 -18.254,-8.91 -35.184,3.832 -13.273,9.992 -21.375,24.856 -28.312,39.945 -0.684,1.485 0.441,4.293 1.664,4.762 5.98,2.32 11.199,1.406 17.086,0.348 8.851,-1.59 16.785,-4.832 23.152,-11.371 l 5.91,-6.075 C -8.348,22.09 -3.629,11.402 0,0" /></g><g
           transform="translate(645.031,1160.7605)"
           id="g228"><path
             id="path230"
             style="fill:#f3abbf;fill-opacity:1;fill-rule:nonzero;stroke:none"
             d="m 0,0 c -0.922,-11.348 -5.41,-23.266 -12.699,-31.637 -0.508,-0.59 -2.168,-1.297 -2.863,-1.215 -0.699,0.086 -2.02,1.41 -2.223,2.109 -7.609,26.723 -13.492,57.743 -4.348,84.344 2.161,6.285 9.426,13.418 11.512,9.016 C -2.746,45.988 1.492,18.226 0.008,0 Z" /></g><g
           transform="translate(594.023,1142.8965)"
           id="g232"><path
             id="path234"
             style="fill:#f3abbf;fill-opacity:1;fill-rule:nonzero;stroke:none"
             d="M 0,0 C -0.144,-1.156 -2.964,-3.746 -3.757,-2.941 -15.781,9.321 -29.41,34.602 -34.507,51.133 l -3.547,15.242 c -0.903,3.852 0.203,8.684 2.047,12.344 0.824,1.461 5.242,0.594 6.687,-0.539 C -7.367,61.047 5.032,41.742 1.559,12.949 Z" /></g><g
           transform="translate(298.98,596.3455)"
           id="g236"><path
             id="path238"
             style="fill:#f9f7f8;fill-opacity:1;fill-rule:nonzero;stroke:none"
             d="m 0,0 14.415,-22.687 c 6.914,-10.883 14.593,-20.414 23.589,-29.57 l 6.004,-6.864 11.184,-11.265 9.074,-7.485 19.391,-15.816 15.14,-9.699 c 2.395,-1.528 6.539,-4.153 6.922,-6.922 0.449,-3.285 -4.23,-4.184 -6.562,-3.906 -4.633,0.546 -8.856,1.093 -13.231,0.492 -3.59,-0.492 -6.59,-0.645 -10.289,0.258 l -126.293,-0.075 -10.73,-0.16 -20.821,0.555 -14.011,3.129 c -8.391,1.875 -16.289,5.926 -23.383,11.086 -15.106,10.98 -26.688,26.355 -33.055,43.918 l -3.097,14.558 0.015,359.407 c 2.207,14.378 7.082,27.211 15.992,38.394 3.477,4.363 6.711,9.328 10.985,13.004 10.14,8.707 22.066,15.594 34.957,18.801 l 14.715,3.668 183.961,-0.016 c 1.101,0 2.976,-1.957 3.218,-2.887 0.278,-1.062 -1.183,-2.992 -2.308,-3.687 L 90.059,376.418 71.586,363.332 66.45,358.817 48.106,341.801 c -7.793,-7.23 -14.055,-15.773 -21.195,-23.679 -4.957,-5.489 -8.52,-11.43 -12.571,-17.481 l -12.031,-18 -11.113,-22.719 C -15.3,246.641 -21.285,233.403 -24.621,218.903 l -5.363,-23.324 -3.262,-22.875 -1.593,-15.403 -0.727,-9.812 0.106,-21.403 2.582,-23.5 2.902,-18.121 1.215,-8.758 2.617,-10.746 c 4.191,-17.23 10.648,-33.129 18.375,-48.984 L 0.008,0.016 Z" /></g><g
           transform="translate(322.508,1000.4005)"
           id="g240"><path
             id="path242"
             style="fill:#f9f7f8;fill-opacity:1;fill-rule:nonzero;stroke:none"
             d="m 0,0 -80.25,0.016 c -3.637,-1.199 -8.184,-0.809 -10.262,2.508 -2.652,4.226 -1.883,9.351 -1.234,14.054 1.168,8.563 6.058,15.59 14.593,17.93 l 64.239,-0.254 C -4.238,34.219 2.476,25.223 3.367,17.199 L 3.554,3.934 C 3.301,2.86 1.312,1 0.008,0.016 Z" /></g><g
           transform="translate(806.121,735.7135)"
           id="g244"><path
             id="path246"
             style="fill:#f9f7f8;fill-opacity:1;fill-rule:nonzero;stroke:none"
             d="m 0,0 c 0,-142.45 -115.418,-257.918 -257.789,-257.918 -142.371,0 -257.789,115.476 -257.789,257.918 0,142.437 115.418,257.918 257.789,257.918 C -115.418,257.918 0,142.437 0,0 m -336.492,78.675 6.336,4.688 20.414,11.113 c 5.672,3.09 10.621,6.985 16.68,9.465 3.406,1.395 5.804,4.043 8.722,6.262 5.703,4.336 18.047,6.715 20.145,14.297 l 7.203,25.988 11.992,24.59 c 5.453,11.183 15.68,24.406 25.152,32.597 l 12.528,10.829 c 0.613,0.531 1.551,1.664 1.898,2.324 1.485,2.875 -8.793,5.054 -15.765,5.664 l -15.137,1.312 -12.785,0.703 h -17.989 l -13.55,-0.703 -11.871,-1.215 c -5.754,-0.593 -11.055,-1.507 -16.524,-3.058 l -10.539,-2.996 -12.785,-4.446 -18.309,-7.914 -10.832,-4.91 -11.218,-6.062 c -3.352,-1.805 -5.407,-4.321 -6.18,-8.266 -1.942,-9.898 -1.606,-19.836 -0.758,-29.953 l 0.645,-7.637 1.187,-10.101 3.899,-18.645 c 1.207,-5.758 1.746,-11.773 3.734,-17.379 3.195,-9.019 14.887,-35.902 18.773,-34.152 l 3.969,1.785 c 3.801,1.707 7.477,3.231 10.977,5.82 z m 223.445,-2.339 6.61,0.582 c 11.804,1.05 23.187,-0.2 34.992,-1.973 9.293,-1.395 18.203,-3.973 26.703,-7.723 2.324,-1.027 3.957,-1.949 6.508,-0.504 -1.063,6.805 -3.391,12.422 -6.832,18.09 -2.594,9.457 -6.09,18.555 -11.469,26.797 -7.941,12.195 -15.297,24.242 -24.547,35.41 l -9.141,9.68 -15.562,15.894 -17.012,12.969 -14.371,10.422 -13.715,7.313 c -5.297,2.82 -10.05,5.632 -15.879,7.41 -3.668,1.117 -7.722,3.39 -11.757,2.797 -3.34,-0.493 -6.43,-3.313 -9.375,-4.754 -8.192,-3.989 -15.438,-8.543 -21.309,-15.516 l -14.746,-17.508 c -2.856,-3.386 -4.344,-8.39 -6.231,-12.465 L -239,144.254 c -3.316,-7.149 -5.43,-14.094 -7.199,-21.954 1.504,-2.046 3.387,-3.964 5.562,-5.168 l 10.172,-5.625 22.641,-13.32 9.953,-5.816 19.109,-11.703 11.7,-7.004 c 4.882,-2.926 10.238,-6.676 16.293,-4.875 l 13.769,4.093 23.938,3.438 z m -328.258,-110.899 11.61,-4.551 c 12.074,-4.73 24.359,-7.843 37.492,-8.406 11.602,-0.496 28.41,-4.816 28.394,4.141 l -0.097,91.633 c 0,3.136 -1.207,6.675 -1.988,9.496 -7.258,9.418 -11.926,19.777 -15.696,30.972 l -7.203,19.832 c -1.535,4.231 -2.316,8.121 -3.289,12.547 l -3.219,14.633 c -2.07,13.043 -3.472,25.641 -2.894,38.813 l -1.297,2.386 c -0.293,0.539 -2.664,0.074 -3.113,-0.39 l -6.832,-7.043 -10.606,-10.598 -15.156,-17.039 -10.27,-14.387 -12.172,-20.015 -9,-19.403 -5.722,-16.98 c -4.5,-10.832 -7.082,-21.758 -8.68,-33.36 l -3.074,-22.308 -0.02,-22.004 c 0,-6.008 6.629,-8.879 11.055,-11.293 l 19.949,-10.899 11.821,-5.769 z m 374.625,-92.715 6.793,10.59 6.457,11.524 4.84,9.476 3.68,11.297 4.973,11.707 3.871,11.836 5.047,23.281 2.281,21.75 0.562,7.582 -0.047,26.121 -2.007,12.809 c -0.555,3.551 -0.063,8.957 -3.332,10.809 l -8.168,4.621 c -3.786,2.144 -6.86,4.222 -10.821,5.855 -12.523,5.176 -23.773,8.266 -37.672,8.223 l -20.168,-0.071 -30.886,-5.332 c -2.512,-0.433 -6.485,-3.261 -6.5,-6.156 l -0.438,-89.715 c -0.035,-8.16 1.344,-14.16 5.485,-21.531 l 5.558,-9.894 4.387,-10.012 5.836,-13.742 4.047,-10.918 4.914,-18.352 c 1.351,-5.047 2.16,-9.547 2.64,-14.777 l 0.606,-6.703 0.824,-9.813 0.488,-10.469 c 0.172,-3.605 0.09,-6.254 2.321,-9.785 l 8.25,7.512 c 10.664,9.715 20.015,20.281 29.359,31.246 2.828,3.324 4.215,6.953 6.832,11.027 z M -292.012,-154 l 9.907,13.058 11.078,15.074 c 0.984,1.336 2.273,3.293 2.461,4.688 0.172,1.285 -1.493,3.633 -2.684,4.375 l -12.512,7.844 -9.105,4.98 -14.176,7.656 -11.637,7.196 -21.918,12.515 -11.308,6.481 c -5.551,3.18 -9.832,2.804 -15.793,3.051 l -11.762,0.488 -9.629,0.805 -25.015,4.597 c -4.813,0.883 -9.157,1.567 -13.438,4.223 -1.867,1.152 -4.359,1.297 -6.691,1.558 -7.731,0.872 -14.371,4.477 -21.028,8.04 -5.125,2.738 -10.8,4.457 -15.421,7.859 -3.204,2.363 -5.918,5.777 -10.665,3.715 0.36,-8.867 2.219,-16.067 5.571,-24.457 1.808,-4.532 2.394,-10.024 4.254,-14.582 l 4.14,-10.157 c 4.528,-14.414 11.84,-27.214 20.168,-39.605 l 6.059,-9.016 8.004,-10.769 12.824,-14.977 c 3.336,-3.902 6.727,-7.125 10.746,-10.285 l 10.914,-8.578 13.485,-10.289 c 6.96,-3.75 13.148,-7.344 19.148,-12.555 1.598,-1.39 4.891,-1.914 6.766,-0.91 l 12.328,6.555 12.847,5.965 c 10.606,6.839 19.711,14.984 29.094,23.308 l 5.992,5.317 6.989,6.871 z m 13.297,-74.93 6.446,-0.445 26.683,0.097 14.543,0.758 10.371,2.102 19.848,4.156 24.402,7.707 10.336,3.879 20.754,10.738 8.258,5.117 c 4.59,2.844 5.562,6.75 5.879,11.844 0.531,8.727 1.25,17.383 -0.196,26.203 l -3.914,23.879 -2.265,11.215 -3.645,12.66 c -2.422,8.414 -5.265,16.16 -9.16,23.918 l -5.34,10.633 c -0.636,1.269 -3.222,3.203 -4.609,3.09 -1.57,-0.125 -3.692,-1.528 -5.305,-2.446 l -33.883,-19.183 -10.781,-6.547 -13.437,-7.574 -13.875,-8.664 -11.266,-7.664 c -3.945,-2.688 -7.477,-15.168 -16.043,-25.801 l -9.367,-11.625 c -5.625,-6.985 -11.469,-13.274 -18.293,-19.262 -8.731,-7.656 -16.813,-15.832 -26.992,-21.582 l -8.641,-4.891 -6.539,-4.847 c -0.609,-0.449 -1.711,-1.949 -1.344,-2.571 0.293,-0.496 1.434,-1.238 1.996,-1.425 l 14.192,-4.68 31.047,-7.281 c 3.347,-0.789 6.265,-1.246 10.14,-1.516 z" /></g></g></g></g></svg>